Coordinates
version=1
nRows=54
nColumns=12
inDegrees=yes

Units are S.I. units (second, meters, Newtons, ...)
Angles are in degrees

endheader
time	SC_y	SC_z	SC_x	AC_y	AC_z	AC_x	GH_y	GH_z	GH_yy	EL_x	PS_y
       0.0              -28.16          5.796          50.02           37.3          8.543           6.63         -58.55          68.23         -46.93          111.6          126.3
   0.03098              -28.16            5.8          50.03          37.31          8.542          6.627         -58.55          68.23         -46.91          111.6          126.3
   0.06196              -28.16          5.803          50.03          37.31           8.54          6.624         -58.55          68.23          -46.9          111.6          126.3
   0.09294              -28.16          5.807          50.03          37.32          8.538          6.621         -58.55          68.23         -46.88          111.6          126.3
    0.1239              -28.16          5.812          50.03          37.32          8.536          6.618         -58.55          68.23         -46.87          111.6          126.3
    0.1549              -28.16          5.816          50.03          37.33          8.534          6.614         -58.54          68.24         -46.85          111.5          126.2
    0.1859              -28.16          5.821          50.04          37.33          8.532          6.611         -58.54          68.24         -46.83          111.5          126.2
    0.2169              -28.16          5.827          50.04          37.34           8.53          6.607         -58.54          68.24         -46.81          111.5          126.2
    0.2478              -28.16          5.832          50.04          37.34          8.527          6.602         -58.53          68.24         -46.79          111.5          126.2
    0.2788              -28.16          5.838          50.05          37.35          8.525          6.598         -58.53          68.25         -46.77          111.5          126.2
    0.3098              -28.16          5.845          50.05          37.36          8.522          6.593         -58.53          68.25         -46.74          111.5          126.2
    0.3408              -28.16          5.852          50.05          37.37          8.519          6.588         -58.52          68.25         -46.72          111.4          126.1
    0.3717              -28.16          5.859          50.06          37.37          8.515          6.582         -58.52          68.26         -46.69          111.4          126.1
    0.4027              -28.16          5.867          50.06          37.38          8.512          6.576         -58.52          68.26         -46.66          111.4          126.1
    0.4337              -28.16          5.876          50.07          37.39          8.508          6.569         -58.51          68.27         -46.62          111.4          126.1
    0.4647              -28.16          5.886          50.07           37.4          8.504          6.562         -58.51          68.27         -46.59          111.3          126.1
    0.4957              -28.16          5.896          50.08          37.42          8.499          6.554          -58.5          68.28         -46.55          111.3          126.0
    0.5266              -28.16          5.907          50.08          37.43          8.494          6.546         -58.49          68.28         -46.51          111.3          126.0
    0.5576              -28.16           5.92          50.09          37.44          8.489          6.537         -58.49          68.29         -46.46          111.2          126.0
    0.5886              -28.16          5.933           50.1          37.46          8.483          6.526         -58.48           68.3         -46.41          111.2          125.9
    0.6196              -28.16          5.948          50.11          37.48          8.476          6.515         -58.47           68.3         -46.35          111.2          125.9
    0.6506              -28.16          5.964          50.12          37.49          8.469          6.503         -58.46          68.31         -46.29          111.1          125.8
    0.6815              -28.16          5.982          50.13          37.52          8.461          6.489         -58.45          68.32         -46.22          111.1          125.8
    0.7125              -28.16          6.002          50.14          37.54          8.452          6.474         -58.44          68.33         -46.15          111.0          125.7
    0.7435              -28.16          6.025          50.15          37.56          8.442          6.458         -58.43          68.34         -46.06          111.0          125.7
    0.7745              -28.15          6.049          50.16          37.59          8.431          6.439         -58.42          68.36         -45.97          110.9          125.6
    0.8054              -28.15          6.077          50.18          37.62          8.419          6.418          -58.4          68.37         -45.86          110.8          125.5
    0.8364              -28.15          6.108          50.19          37.66          8.405          6.395         -58.39          68.39         -45.75          110.7          125.5
    0.8674              -28.15          6.144          50.21           37.7           8.39          6.368         -58.37           68.4         -45.61          110.6          125.4
    0.8984              -28.15          6.184          50.24          37.74          8.372          6.338         -58.35          68.42         -45.46          110.5          125.3
    0.9294              -28.15           6.23          50.26           37.8          8.352          6.304         -58.32          68.45         -45.29          110.4          125.1
    0.9603              -28.15          6.282          50.29          37.86          8.329          6.264         -58.29          68.47         -45.09          110.2          125.0
    0.9913              -28.14          6.343          50.32          37.93          8.302          6.218         -58.26          68.51         -44.86          110.1          124.8
     1.022              -28.14          6.413          50.36          38.01          8.271          6.165         -58.23          68.54         -44.59          109.9          124.7
     1.053              -28.14          6.496          50.41           38.1          8.234          6.103         -58.18          68.58         -44.28          109.6          124.4
     1.084              -28.13          6.593          50.46          38.21          8.191           6.03         -58.13          68.63         -43.91          109.4          124.2
     1.115              -28.13          6.708          50.52          38.34           8.14          5.944         -58.07          68.69         -43.48          109.0          123.9
     1.146              -28.13          6.847           50.6           38.5          8.079          5.839         -57.99          68.76         -42.95          108.7          123.5
     1.177              -28.12          7.014          50.69          38.69          8.005          5.714         -57.91          68.85         -42.32          108.2          123.1
     1.208              -28.11          7.218           50.8          38.93          7.915           5.56          -57.8          68.95         -41.55          107.6          122.5
     1.239               -28.1          7.471          50.94          39.21          7.804           5.37         -57.66          69.08         -40.59          106.9          121.8
      1.27              -28.09          7.786          51.11          39.57          7.664          5.133          -57.5          69.24          -39.4          106.0          121.0
     1.301              -28.08          8.182          51.33          40.03          7.489          4.835         -57.28          69.45          -37.9          104.9          119.9
     1.332              -28.06          8.686           51.6           40.6          7.267          4.456         -57.02           69.7          -36.0          103.5          118.6
     1.363              -28.03          9.331          51.95          41.34          6.982           3.97         -56.67          70.03         -33.56          101.7          116.9
     1.394               -28.0          10.16          52.41          42.28          6.616          3.347         -56.23          70.46         -30.43          99.38          114.7
     1.425              -27.96          11.22          52.98          43.49          6.149          2.552         -55.67           71.0         -26.43          96.41          111.9
     1.456              -27.91          12.55          53.71          45.01          5.561          1.551         -54.96          71.68          -21.4          92.69          108.3
     1.487              -27.85          14.17          54.59          46.85          4.846         0.3325          -54.1          72.51         -15.27          88.15          104.0
     1.518              -27.78          16.05          55.62           49.0          4.016         -1.081          -53.1          73.47         -8.164          82.89          99.03
     1.549              -27.71          18.08          56.73          51.32          3.117         -2.611         -52.02          74.51        -0.4724           77.2          93.63
      1.58              -27.63          20.11          57.84          53.64          2.219          -4.14         -50.94          75.55          7.219           71.5          88.22
     1.611              -27.56          21.99          58.87          55.78          1.389         -5.553         -49.94          76.51          14.32          66.24          83.22
     1.642               -27.5          23.61          59.75          57.63         0.6735         -6.773         -49.08          77.34          20.45           61.7          78.91
